HIERARCHY
ROOT Hips
{
  OFFSET 15.2955 96.0401 2.55592
  CHANNELS 6 Xposition Yposition Zposition Zrotation Xrotation Yrotation
  JOINT Chest
  {
    OFFSET 0 10.5691 -1.07959
    CHANNELS 6 Xposition Yposition Zposition Zrotation Xrotation Yrotation
    JOINT Chest2
    {
      OFFSET 0 11.6675 1.08235
      CHANNELS 6 Xposition Yposition Zposition Zrotation Xrotation Yrotation
      JOINT Chest3
      {
        OFFSET 0 10.5876 0
        CHANNELS 6 Xposition Yposition Zposition Zrotation Xrotation Yrotation
        JOINT Chest4
        {
          OFFSET 0 10.5876 0
          CHANNELS 6 Xposition Yposition Zposition Zrotation Xrotation Yrotation
          JOINT Neck
          {
            OFFSET 0 14.88 0
            CHANNELS 6 Xposition Yposition Zposition Zrotation Xrotation Yrotation
            JOINT Head
            {
              OFFSET 0 9.61473 2.16553
              CHANNELS 6 Xposition Yposition Zposition Zrotation Xrotation Yrotation
              End Site
              {
                OFFSET 0 0 0
              }
            }
          }
          JOINT RightCollar
          {
            OFFSET -3.23953 8.30385 0
            CHANNELS 6 Xposition Yposition Zposition Zrotation Xrotation Yrotation
            JOINT RightShoulder
            {
              OFFSET -15.1725 0 0
              CHANNELS 6 Xposition Yposition Zposition Zrotation Xrotation Yrotation
              JOINT RightElbow
              {
                OFFSET -32.4113 0 0
                CHANNELS 6 Xposition Yposition Zposition Zrotation Xrotation Yrotation
                JOINT RightWrist
                {
                  OFFSET -26.4919 0 1.08131
                  CHANNELS 6 Xposition Yposition Zposition Zrotation Xrotation Yrotation
                  End Site
                  {
                    OFFSET 0 0 0
                  }
                }
              }
            }
          }
          JOINT LeftCollar
          {
            OFFSET 3.23953 8.30385 0
            CHANNELS 6 Xposition Yposition Zposition Zrotation Xrotation Yrotation
            JOINT LeftShoulder
            {
              OFFSET 15.1725 0 0
              CHANNELS 6 Xposition Yposition Zposition Zrotation Xrotation Yrotation
              JOINT LeftElbow
              {
                OFFSET 32.4113 0 0
                CHANNELS 6 Xposition Yposition Zposition Zrotation Xrotation Yrotation
                JOINT LeftWrist
                {
                  OFFSET 26.4919 0 1.08131
                  CHANNELS 6 Xposition Yposition Zposition Zrotation Xrotation Yrotation
                  End Site
                  {
                    OFFSET 0 0 0
                  }
                }
              }
            }
          }
        }
      }
    }
  }
  JOINT RightHip
  {
    OFFSET -8.63674 0.00547028 0
    CHANNELS 6 Xposition Yposition Zposition Zrotation Xrotation Yrotation
    JOINT RightKnee
    {
      OFFSET -1.00523e-005 -44.4933 -2.13963
      CHANNELS 6 Xposition Yposition Zposition Zrotation Xrotation Yrotation
      JOINT RightAnkle
      {
        OFFSET 0 -43.4408 -3.54051
        CHANNELS 6 Xposition Yposition Zposition Zrotation Xrotation Yrotation
        JOINT RightToe
        {
          OFFSET 0 -8.3927 19.1252
          CHANNELS 6 Xposition Yposition Zposition Zrotation Xrotation Yrotation
          End Site
          {
            OFFSET 0 0 0
          }
        }
      }
    }
  }
  JOINT LeftHip
  {
    OFFSET 8.63674 0.00547028 0
    CHANNELS 6 Xposition Yposition Zposition Zrotation Xrotation Yrotation
    JOINT LeftKnee
    {
      OFFSET -4.29536e-005 -44.4933 -2.13961
      CHANNELS 6 Xposition Yposition Zposition Zrotation Xrotation Yrotation
      JOINT LeftAnkle
      {
        OFFSET 0 -43.4407 -3.54051
        CHANNELS 6 Xposition Yposition Zposition Zrotation Xrotation Yrotation
        JOINT LeftToe
        {
          OFFSET 0 -8.3927 19.1252
          CHANNELS 6 Xposition Yposition Zposition Zrotation Xrotation Yrotation
          End Site
          {
            OFFSET 0 0 0
          }
        }
      }
    }
  }
}
MOTION
Frames:	7
Frame Time:	0.0333333
30.4735 86.0959 -229.91 -5.49425 7.01875 -93.1345 2.84217e-014 10.5691 -1.07959 0.707602 3.02658 -1.05885 -2.84217e-014 11.6675 1.08235 1.47425 6.03922 -2.15976 2.84217e-014 10.5876 2.12362e-009 1.47426 6.03922 -2.15979 2.84217e-014 10.5876 2.12362e-009 1.47425 6.03923 -2.15973 6.95328e-006 14.8798 -0.00291295 -6.17316 3.03495 17.8825 -3.45319e-008 9.61451 2.16553 -16.8901 -5.82428 18.7754 -3.23953 8.30385 -7.10543e-015 -5.96354e-016 -2.13694e-015 1.59028e-015 -15.1725 -4.76837e-006 1.90901e-006 61.7714 -29.0676 11.8004 -32.4113 -1.16402e-006 1.57567e-007 17.1334 -0.665493 6.85783 -26.4919 1.66513e-006 1.08131 9.14331 0.411885 3.31853 3.23953 8.30385 -2.13163e-014 -5.96354e-016 -2.13694e-015 1.59028e-015 15.1725 -4.76837e-006 -1.90568e-006 -64.9016 25.5071 -41.0765 32.4113 2.16297e-006 -3.05838e-006 4.92291 17.978 -49.6402 26.4919 -5.80541e-006 1.08131 2.65422 -0.603471 -24.0062 -8.63674 0.00547028 9.53674e-007 -19.1326 -18.5761 -27.7733 0.00170587 -44.4922 -2.13981 -9.6464 42.2581 19.8841 -5.94196e-006 -43.4408 -3.54051 6.30869 -18.5948 19.7901 5.51068e-006 -8.3927 19.1252 -6.46435 -0.372051 11.452 8.63674 0.00547028 -1.90735e-006 8.22793 -36.0027 5.86652 -0.000130864 -44.4931 -2.13971 1.44536 72.8683 2.75618 3.66938e-007 -43.4407 -3.54051 6.88478 -6.6779 15.133 -6.77234e-008 -8.3927 19.1252 1.90775 4.58541 -5.43675 
30.7306 85.5848 -231.098 -6.20705 6.18492 -88.7389 0 10.5691 -1.07959 0.84532 3.51408 -1.14251 0 11.6675 1.08235 1.76586 7.01013 -2.3433 -2.84217e-014 10.5876 2.12362e-009 1.76586 7.01013 -2.34335 0 10.5876 2.12362e-009 1.76586 7.01013 -2.34332 6.95328e-006 14.8798 -0.00290324 -8.65413 2.21004 18.9919 -3.45319e-008 9.61451 2.16553 -16.9887 -7.46199 18.933 -3.23953 8.30385 -7.10543e-015 0 4.72114e-016 -0 -15.1725 -4.76837e-006 1.90901e-006 60.06 -31.1307 14.9387 -32.4113 -1.16402e-006 1.57567e-007 14.8184 4.31379 2.21949 -26.4919 1.66513e-006 1.08131 10.4861 1.00481 9.2824 3.23953 8.30385 0 0 4.72114e-016 -0 15.1725 -4.76837e-006 -1.90568e-006 -65.4158 25.1047 -39.9829 32.4113 2.16297e-006 -3.05838e-006 7.42966 20.8803 -48.8838 26.4919 -5.80541e-006 1.08131 2.628 -0.722255 -29.0289 -8.63674 0.00547028 9.53674e-007 -18.68 -17.8002 -29.2895 0.00172088 -44.4922 -2.13982 -12.6019 43.8606 21.282 -5.94196e-006 -43.4408 -3.54051 1.22794 -23.94 16.4448 5.51068e-006 -8.3927 19.1252 -11.0435 -5.28824 23.3902 8.63674 0.00547028 -1.90735e-006 9.76804 -36.9288 11.1825 -0.000129269 -44.4931 -2.13971 -0.210987 73.1101 9.62984 3.66938e-007 -43.4407 -3.54051 7.83298 -5.30007 17.538 -6.77234e-008 -8.3927 19.1252 1.49587 4.42164 -7.10955 
30.9856 84.9173 -231.872 -6.80066 4.75238 -84.3916 -2.84217e-014 10.5691 -1.07959 0.607496 3.91538 -1.08474 -5.68434e-014 11.6675 1.08235 1.29392 7.81831 -2.21907 0 10.5876 2.12363e-009 1.29392 7.81831 -2.21912 0 10.5876 2.12362e-009 1.29392 7.81831 -2.2191 6.95328e-006 14.8798 -0.00289344 -6.45475 2.42836 19.1685 -3.45319e-008 9.61451 2.16553 -18.6756 -8.38116 19.9306 -3.23953 8.30385 2.13163e-014 1.98785e-016 -2.44754e-015 -1.19271e-015 -15.1725 -4.76837e-006 1.90901e-006 59.3119 -33.2016 16.1113 -32.4113 -1.16402e-006 1.57567e-007 14.8982 8.46331 -1.19172 -26.4919 1.66513e-006 1.08131 7.38262 0.942849 12.8653 3.23953 8.30385 1.42109e-014 1.98785e-016 -2.44754e-015 -1.19271e-015 15.1725 -4.76837e-006 -1.90568e-006 -63.7391 25.6742 -37.4091 32.4113 2.16297e-006 -3.05838e-006 9.26201 19.9295 -50.8438 26.4919 -5.80541e-006 1.08131 3.07513 -0.853691 -28.9099 -8.63674 0.00547028 9.53674e-007 -19.4446 -17.1769 -28.6111 0.00173586 -44.4922 -2.13982 -12.5541 46.3527 19.2884 -5.94196e-006 -43.4408 -3.54051 -4.35796 -28.166 12.5065 5.51068e-006 -8.3927 19.1252 -10.9869 -10.7828 28.8444 8.63674 0.00547028 -1.90735e-006 11.066 -38.2321 14.0268 -0.000127661 -44.4931 -2.13971 -5.93102 74.1414 15.7104 3.66938e-007 -43.4407 -3.54051 8.36578 -4.17067 19.1053 -6.77234e-008 -8.3927 19.1252 0.581558 3.00608 -6.66674 
31.3013 84.19 -232.515 -7.17939 3.51925 -80.0612 -2.84217e-014 10.5691 -1.07959 0.699188 4.24576 -1.05112 -2.84217e-014 11.6675 1.08235 1.48273 8.47752 -2.16295 0 10.5876 2.12363e-009 1.48273 8.47752 -2.16295 -2.84217e-014 10.5876 2.12363e-009 1.48272 8.47752 -2.16294 6.95328e-006 14.8798 -0.00288355 -7.74724 3.58011 18.8273 -3.45319e-008 9.61451 2.16553 -19.8294 -11.4307 18.8854 -3.23953 8.30385 -1.42109e-014 -3.97569e-016 -4.07509e-015 -1.98785e-016 -15.1725 -4.76837e-006 1.90901e-006 54.4876 -32.8693 14.4634 -32.4113 -1.16402e-006 1.57567e-007 16.367 12.9375 -2.11178 -26.4919 1.66513e-006 1.08131 2.89478 0.458766 15.7634 3.23953 8.30385 0 -3.97569e-016 -4.07509e-015 -1.98785e-016 15.1725 -4.76837e-006 -1.90568e-006 -65.4758 24.5274 -33.6121 32.4113 2.16297e-006 -3.05838e-006 11.3288 20.156 -51.1613 26.4919 -5.80541e-006 1.08131 8.36907 -2.42198 -30.6048 -8.63674 0.00547028 9.53674e-007 -20.7062 -17.6295 -28.2881 0.0017508 -44.4922 -2.13982 -12.779 50.3871 15.9687 -5.94196e-006 -43.4408 -3.54051 -6.66251 -28.6743 10.5993 5.51068e-006 -8.3927 19.1252 -8.95644 -18.7599 35.7241 8.63674 0.00547028 -1.90735e-006 13.0467 -40.3041 17.0554 -0.000126039 -44.4931 -2.13971 -7.74703 75.8484 15.7643 3.66938e-007 -43.4407 -3.54051 7.7166 -3.59743 18.0206 -6.77234e-008 -8.3927 19.1252 -0.503383 1.39847 -6.49741 
31.425 83.5496 -232.927 -6.91098 0.270428 -76.8274 0 10.5691 -1.07959 0.238958 4.58243 -0.977948 -2.84217e-014 11.6675 1.08235 0.559298 9.16008 -1.985 2.84217e-014 10.5876 2.12363e-009 0.559298 9.16008 -1.98499 -2.84217e-014 10.5876 2.12363e-009 0.5593 9.16008 -1.98498 6.95328e-006 14.8798 -0.00287356 -7.10486 3.8761 19.0047 -3.45319e-008 9.61451 2.16553 -19.8456 -12.6989 19.0819 -3.23953 8.30385 0 -4.55184e-032 3.27995e-015 7.95139e-016 -15.1725 -4.76837e-006 1.90901e-006 51.7755 -32.1809 12.4197 -32.4113 -1.16402e-006 1.57567e-007 17.1659 15.0658 -2.0309 -26.4919 1.66513e-006 1.08131 -3.62874 -0.553872 14.9573 3.23953 8.30385 -1.42109e-014 -4.55184e-032 3.27995e-015 7.95139e-016 15.1725 -4.76837e-006 -1.90568e-006 -66.3776 21.9609 -28.2348 32.4113 2.16297e-006 -3.05838e-006 12.8782 16.0855 -54.6116 26.4919 -5.80541e-006 1.08131 9.68861 -2.50477 -27.1835 -8.63674 0.00547028 9.53674e-007 -24.0454 -18.058 -25.9484 0.0017657 -44.4922 -2.13982 -9.8831 54.4581 11.5859 -5.94196e-006 -43.4408 -3.54051 -11.1168 -29.0676 6.0869 5.51068e-006 -8.3927 19.1252 -3.48262 -27.0358 38.9933 8.63674 0.00547028 -1.90735e-006 13.7133 -41.5963 19.9829 -0.000124405 -44.4931 -2.13971 -8.58174 76.1266 14.7718 3.66938e-007 -43.4407 -3.54051 7.09155 -4.4489 16.5709 -6.77234e-008 -8.3927 19.1252 0.134705 2.23395 -6.2164 
32.2101 82.1989 -233.311 -4.9058 1.32582 -71.8452 0 10.5691 -1.07959 0.52594 4.80057 -0.980731 0 11.6675 1.08235 1.14073 9.59108 -2.01643 -2.84217e-014 10.5876 2.12361e-009 1.14073 9.59107 -2.01642 -2.84217e-014 10.5876 2.12361e-009 1.14073 9.59108 -2.01641 6.95328e-006 14.8798 -0.00286348 -8.164 2.03037 18.5328 -3.45319e-008 9.61451 2.16553 -19.5092 -13.8154 18.099 -3.23953 8.30385 1.42109e-014 -7.95139e-016 1.98785e-016 -1.59028e-015 -15.1725 -4.76837e-006 1.90901e-006 48.468 -27.227 9.96776 -32.4113 -1.16402e-006 1.57567e-007 18.1764 21.1369 3.19625 -26.4919 1.66513e-006 1.08131 -10.0292 -1.61994 16.8262 3.23953 8.30385 0 -7.95139e-016 1.98785e-016 -1.59028e-015 15.1725 -4.76837e-006 -1.90568e-006 -69.8157 14.71 -26.3481 32.4113 2.16297e-006 -3.05838e-006 12.5571 15.4202 -54.3506 26.4919 -5.80541e-006 1.08131 11.6837 -2.95891 -26.6046 -8.63674 0.00547028 9.53674e-007 -25.1772 -20.1155 -27.6512 0.00178056 -44.4922 -2.13982 -8.35124 58.2963 9.11662 -5.94196e-006 -43.4408 -3.54051 -12.4285 -29.7981 5.14687 5.51068e-006 -8.3927 19.1252 2.1622 -20.5123 16.8316 8.63674 0.00547028 -1.90735e-006 16.8326 -47.7836 22.1202 -0.000122756 -44.4931 -2.13971 -1.79223 77.2034 6.92027 3.66938e-007 -43.4407 -3.54051 7.38261 -5.85787 17.3137 -6.77234e-008 -8.3927 19.1252 0.782794 3.22424 -6.42347 
32.2984 81.4893 -233.289 -4.41379 1.03229 -68.2755 2.84217e-014 10.5691 -1.07959 0.263018 5.03903 -0.52036 -5.68434e-014 11.6675 1.08235 0.575506 10.0754 -1.07024 0 10.5876 2.12363e-009 0.575513 10.0754 -1.07028 0 10.5876 2.12364e-009 0.575506 10.0754 -1.07024 6.95328e-006 14.8798 -0.0028533 -5.96851 3.11214 16.5867 -3.45319e-008 9.61451 2.16553 -19.1134 -15.9825 16.4609 -3.23953 8.30385 2.84217e-014 6.62086e-032 -2.38542e-015 1.59028e-015 -15.1725 -4.76837e-006 1.90901e-006 48.3366 -24.3679 5.1085 -32.4113 -1.16402e-006 1.57567e-007 19.5166 11.1533 11.8435 -26.4919 1.66513e-006 1.08131 -12.4042 -0.860002 6.05024 3.23953 8.30385 0 6.62086e-032 -2.38542e-015 1.59028e-015 15.1725 -4.76837e-006 -1.90568e-006 -69.7457 9.63117 -23.977 32.4113 2.16297e-006 -3.05838e-006 12.791 14.603 -54.7182 26.4919 -5.80541e-006 1.08131 13.4376 -3.36071 -26.2115 -8.63674 0.00547028 9.53674e-007 -26.8546 -20.2771 -27.8073 0.00179538 -44.4922 -2.13982 -4.99763 61.1956 5.32021 -5.94196e-006 -43.4408 -3.54051 -13.0785 -26.8826 3.11825 5.51068e-006 -8.3927 19.1252 5.49125 -25.5964 16.3378 8.63674 0.00547028 -1.90735e-006 19.3307 -50.7034 21.6942 -0.000121095 -44.4931 -2.13971 -4.59692 75.6376 9.71307 3.66938e-007 -43.4407 -3.54051 6.71096 -4.96184 16.0209 -6.77234e-008 -8.3927 19.1252 -1.81039 -0.66521 -6.01769 
